<mxfile host="Electron" modified="2024-04-23T08:18:56.118Z" agent="Mozilla/5.0 (Windows NT 10.0; Win64; x64) AppleWebKit/537.36 (KHTML, like Gecko) draw.io/24.1.0 Chrome/120.0.6099.109 Electron/28.1.0 Safari/537.36" etag="zvQwBLHPFaKWDiskQ9ey" version="24.1.0" type="device">
  <diagram name="第 1 页" id="U0LXR3iXhbISWzmR-Yif">
    <mxGraphModel dx="794" dy="557" grid="0" gridSize="10" guides="1" tooltips="1" connect="1" arrows="1" fold="1" page="1" pageScale="1" pageWidth="827" pageHeight="1169" math="0" shadow="0">
      <root>
        <mxCell id="0" />
        <mxCell id="1" parent="0" />
        <mxCell id="OFa5oLBjSRrigB1cJcoI-3" style="edgeStyle=orthogonalEdgeStyle;rounded=0;orthogonalLoop=1;jettySize=auto;html=1;entryX=0.5;entryY=0;entryDx=0;entryDy=0;" edge="1" parent="1" source="OFa5oLBjSRrigB1cJcoI-2" target="OFa5oLBjSRrigB1cJcoI-1">
          <mxGeometry relative="1" as="geometry">
            <mxPoint x="391" y="231" as="targetPoint" />
          </mxGeometry>
        </mxCell>
        <mxCell id="OFa5oLBjSRrigB1cJcoI-2" value="" style="shape=umlActor;verticalLabelPosition=bottom;verticalAlign=top;html=1;outlineConnect=0;" vertex="1" parent="1">
          <mxGeometry x="374" y="70" width="30" height="60" as="geometry" />
        </mxCell>
        <mxCell id="OFa5oLBjSRrigB1cJcoI-4" value="&lt;font style=&quot;font-size: 18px;&quot;&gt;规则引擎&lt;/font&gt;" style="text;html=1;align=center;verticalAlign=middle;whiteSpace=wrap;rounded=0;" vertex="1" parent="1">
          <mxGeometry x="256" y="161" width="109" height="34" as="geometry" />
        </mxCell>
        <mxCell id="OFa5oLBjSRrigB1cJcoI-10" value="最终数据" style="strokeWidth=2;html=1;shape=mxgraph.flowchart.database;whiteSpace=wrap;" vertex="1" parent="1">
          <mxGeometry x="328" y="437" width="122" height="98" as="geometry" />
        </mxCell>
        <mxCell id="OFa5oLBjSRrigB1cJcoI-11" style="edgeStyle=orthogonalEdgeStyle;rounded=0;orthogonalLoop=1;jettySize=auto;html=1;exitX=0.5;exitY=1;exitDx=0;exitDy=0;entryX=0.5;entryY=0;entryDx=0;entryDy=0;entryPerimeter=0;" edge="1" parent="1" source="OFa5oLBjSRrigB1cJcoI-1" target="OFa5oLBjSRrigB1cJcoI-10">
          <mxGeometry relative="1" as="geometry" />
        </mxCell>
        <mxCell id="OFa5oLBjSRrigB1cJcoI-12" value="" style="group" vertex="1" connectable="0" parent="1">
          <mxGeometry x="261" y="220" width="256" height="165" as="geometry" />
        </mxCell>
        <mxCell id="OFa5oLBjSRrigB1cJcoI-1" value="" style="rounded=1;whiteSpace=wrap;html=1;fillColor=#fff2cc;strokeColor=#d6b656;" vertex="1" parent="OFa5oLBjSRrigB1cJcoI-12">
          <mxGeometry width="256" height="165" as="geometry" />
        </mxCell>
        <mxCell id="OFa5oLBjSRrigB1cJcoI-6" value="规则1" style="rounded=0;whiteSpace=wrap;html=1;" vertex="1" parent="OFa5oLBjSRrigB1cJcoI-12">
          <mxGeometry x="34" y="34" width="195" height="32" as="geometry" />
        </mxCell>
        <mxCell id="OFa5oLBjSRrigB1cJcoI-7" value="规则2" style="rounded=0;whiteSpace=wrap;html=1;" vertex="1" parent="OFa5oLBjSRrigB1cJcoI-12">
          <mxGeometry x="30.5" y="77" width="195" height="32" as="geometry" />
        </mxCell>
        <mxCell id="OFa5oLBjSRrigB1cJcoI-8" value="规则 n" style="rounded=0;whiteSpace=wrap;html=1;" vertex="1" parent="OFa5oLBjSRrigB1cJcoI-12">
          <mxGeometry x="34" y="120" width="195" height="32" as="geometry" />
        </mxCell>
      </root>
    </mxGraphModel>
  </diagram>
</mxfile>
